<?xml version="1.0" encoding="iso-8859-1"?>
<!-- Generator: Adobe Illustrator 19.0.0, SVG Export Plug-In . SVG Version: 6.00 Build 0)  -->
<svg version="1.1" id="Capa_1" xmlns="http://www.w3.org/2000/svg" xmlns:xlink="http://www.w3.org/1999/xlink" x="0px" y="0px"
	 viewBox="0 0 512 512" style="enable-background:new 0 0 512 512;" xml:space="preserve">
<g>
	<g>
		<path d="M423.518,329.306c-27.177-27.177-59.8-46.921-95.402-58.25c43.598-25.067,73.02-72.122,73.02-125.919
			C401.138,65.109,336.03,0,256.001,0S110.864,65.109,110.864,145.137c0,53.798,29.423,100.852,73.02,125.919
			c-35.601,11.328-68.224,31.072-95.402,58.25c-44.745,44.746-69.387,104.237-69.387,167.516c0,8.382,6.796,15.178,15.178,15.178
			h443.452c8.382,0,15.178-6.796,15.178-15.178C492.905,433.542,468.263,374.051,423.518,329.306z M141.22,145.137
			c0-63.29,51.491-114.781,114.781-114.781c63.29,0,114.781,51.491,114.781,114.781s-51.491,114.781-114.781,114.781
			S141.22,208.427,141.22,145.137z M50.004,481.644c7.793-106.835,97.208-191.37,205.997-191.37s198.203,84.535,205.997,191.37
			H50.004z"/>
	</g>
</g>
<g>
	<g>
		<path d="M256.003,194.628c-7.939,0-15.545,6.981-15.178,15.178c0.368,8.223,6.669,15.178,15.178,15.178
			c7.939,0,15.545-6.981,15.178-15.178C270.812,201.583,264.512,194.628,256.003,194.628z"/>
	</g>
</g>
<g>
	<g>
		<path d="M256.001,65.29c-25.981,0-47.117,21.137-47.117,47.118c0,8.382,6.796,15.178,15.178,15.178
			c8.382,0,15.178-6.796,15.178-15.178c0-9.242,7.519-16.762,16.761-16.762c9.241,0,16.761,7.519,16.761,16.762
			s-7.519,16.762-16.761,16.762c-8.382,0-15.178,6.796-15.178,15.178v22.962c0,8.382,6.796,15.178,15.178,15.178
			c8.382,0,15.178-6.796,15.178-15.178v-10.293c18.558-6.33,31.938-23.937,31.938-44.609
			C303.119,86.427,281.982,65.29,256.001,65.29z"/>
	</g>
</g>
<g>
</g>
<g>
</g>
<g>
</g>
<g>
</g>
<g>
</g>
<g>
</g>
<g>
</g>
<g>
</g>
<g>
</g>
<g>
</g>
<g>
</g>
<g>
</g>
<g>
</g>
<g>
</g>
<g>
</g>
</svg>
